<svg width="192" height="237" viewBox="0 0 192 237" fill="none" xmlns="http://www.w3.org/2000/svg">
<path fill-rule="evenodd" clip-rule="evenodd" d="M57.5297 44.3576C86.7654 33.2352 105.457 68.6023 88.3355 91.6406C72.7177 112.795 36.3589 134.18 40.8046 174.836C44.11 161.251 51.233 147.534 60.1905 140.973C60.1905 140.973 35.4004 181.744 62.7521 236.332C62.2894 218.962 70.6519 199.626 81.4108 188.752C94.7148 175.299 102.896 182.521 92.9795 199.362C115.737 189.446 126.578 169.746 130.165 137.039C132.925 111.902 154.756 130.214 139.32 157.268C163.449 146.724 180.158 104.383 168.507 74.6346C156.855 44.8865 118.249 2.9582 57.5297 44.3576Z" fill="currentColor"/>
<path fill-rule="evenodd" clip-rule="evenodd" d="M12.9403 127.719C10.0316 139.072 15.7994 150.707 23.1373 159.318C21.6003 154.211 20.46 148.278 21.6003 143.882C23.6992 152.591 28.1284 161.417 33.9788 167.019C33.8301 150.03 46.3904 128.413 46.3904 128.413C26.988 137.172 12.9403 127.719 12.9403 127.719Z" fill="currentColor"/>
<path fill-rule="evenodd" clip-rule="evenodd" d="M59.0003 46.5559C49.8296 48.6735 41.5634 53.6367 35.3836 60.7358C35.3836 60.7358 36.0778 64.1568 30.8553 69.9577C28.5426 72.5266 22.9498 76.6675 17.1744 80.9435L17.1744 80.9435C9.90835 86.3233 2.35334 91.9169 0.677512 94.8635C0.081079 95.9121 -0.0806237 97.0232 0.0434487 98.1307L0 98.1357C0.512328 102.614 5.30508 107.143 5.30508 107.143C6.05865 112.382 8.64672 117.17 12.5877 120.666C18.7343 126.234 27.8858 127.236 36.7553 125.487C52.8166 122.333 57.4896 112.484 62.0977 102.773C64.8772 96.9151 67.6329 91.1072 72.8497 86.848C70.4464 92.1399 69.1796 97.8769 69.1312 103.689C71.7828 97.7116 75.4335 94.4995 78.8903 91.458C83.1467 87.7129 87.1091 84.2265 88.5501 76.1552C91.2605 60.587 78.601 42.6721 59.0003 46.5559ZM48.8694 59.9094L49.828 62.0909C53.7669 61.0781 57.8264 60.611 61.8925 60.7027C58.2415 65.7884 52.7949 69.2974 46.6548 70.5195C42.8276 74.0868 38.6594 77.2696 34.2102 80.0224C34.2102 80.0224 46.5722 68.7512 48.8694 59.9094Z" fill="currentColor"/>
<path fill-rule="evenodd" clip-rule="evenodd" d="M164.077 48.5225C153.285 39.8129 170.837 38.4246 181.943 48.9687C169.68 18.8405 132.214 17.8819 112.084 21.4847C115.109 14.8741 114.034 5.80088 112.183 0C105.936 28.1946 71.8417 18.7909 57.5296 44.3577C85.278 36.5406 86.5505 58.5872 118.497 74.238C149.418 89.393 182.62 87.7073 189.958 130.429C198.321 82.1874 178.951 60.5209 164.077 48.5225Z" fill="currentColor"/>
</svg>
